<?xml version="1.0" standalone="no"?>
<!DOCTYPE svg PUBLIC "-//W3C//DTD SVG 20010904//EN"
 "http://www.w3.org/TR/2001/REC-SVG-20010904/DTD/svg10.dtd">
<svg version="1.0" xmlns="http://www.w3.org/2000/svg"
 width="512.000000pt" height="512.000000pt" viewBox="0 0 512.000000 512.000000"
 preserveAspectRatio="xMidYMid meet">

<g transform="translate(0.000000,512.000000) scale(0.100000,-0.100000)"
fill="#000000" stroke="none">
<path d="M2432 4785 c-34 -7 -90 -28 -124 -45 -83 -43 -1473 -846 -1523 -880
-95 -66 -177 -180 -218 -300 -21 -64 -22 -78 -25 -663 l-3 -598 30 -29 c36
-37 73 -39 106 -6 l23 23 5 589 c3 324 8 602 12 617 5 20 13 27 25 24 9 -2
212 -119 451 -259 785 -461 1141 -658 1247 -689 l42 -12 0 -1034 c0 -870 -2
-1033 -14 -1033 -36 0 -347 173 -1031 575 -236 138 -460 269 -498 289 -124 69
-203 174 -226 301 -6 32 -11 112 -11 177 0 113 -1 120 -25 143 -39 40 -104 27
-126 -27 -19 -47 -6 -307 20 -388 37 -118 120 -233 216 -300 50 -34 1439 -837
1523 -880 126 -64 296 -76 433 -30 58 20 1404 787 1569 895 119 78 200 185
243 320 l22 70 0 925 0 925 -22 70 c-42 134 -130 248 -248 324 -179 115 -1508
872 -1565 891 -83 28 -222 35 -308 15z m273 -172 c28 -11 385 -214 795 -451
546 -315 758 -443 793 -477 57 -55 101 -140 116 -220 15 -78 15 -1730 1 -1806
-16 -82 -61 -170 -116 -223 -36 -36 -237 -157 -784 -473 -730 -422 -790 -455
-842 -468 l-28 -7 0 1035 0 1035 66 16 c37 9 85 26 108 38 96 48 1323 732
1339 746 44 38 5 132 -55 132 -20 0 -246 -121 -681 -362 -358 -199 -678 -373
-711 -386 -83 -34 -199 -34 -282 0 -72 29 -1614 917 -1614 930 0 23 356 235
1050 628 206 117 411 234 455 261 44 26 105 55 135 64 70 19 188 14 255 -12z"/>
</g>
</svg>
